<?xml version="1.0" standalone="no"?>
<!DOCTYPE svg PUBLIC "-//W3C//DTD SVG 1.1//EN" "http://www.w3.org/Graphics/SVG/1.1/DTD/svg11.dtd" >
<svg xmlns="http://www.w3.org/2000/svg">
<metadata>Generated by IcoMoon</metadata>
<defs>
<font id="icomoon" horiz-adv-x="1024">
<font-face units-per-em="1024" ascent="960" descent="-64" />
<missing-glyph horiz-adv-x="1024" />
<glyph unicode="&#x20;" horiz-adv-x="512" d="" />
<glyph unicode="&#xe900;" glyph-name="homepage" d="M813.096 120.368l-150.552 0.040v139.896c-0.018 83.18-67.387 150.624-150.532 150.776h-0.012c-83.024 0-150.552-67.632-150.552-150.776v-139.824l-150.552 0.040v500.384l300.72 197.032 301.472-197.48v-500.088zM587.272 120.408l-150.552 0.040v139.856c0 41.624 33.76 75.504 75.272 75.504s75.272-33.872 75.272-75.504v-139.896zM945.88 623.424l-95.144 62.328v120.776c0 20.785-16.847 37.64-37.64 37.64s-37.64-16.847-37.64-37.64v0-71.472l-242.832 159.128c-5.505 3.459-12.195 5.507-19.372 5.507-0.682 0-1.353-0.016-2.027-0.055l0.095 0.003c-0.422 0.015-0.914 0.031-1.409 0.031-7.144 0-13.802-2.040-19.442-5.571l0.154 0.092-413.256-270.76c-10.308-6.827-17.017-18.372-17.017-31.48 0-20.785 16.847-37.641 37.641-37.641 7.677 0 14.81 2.297 20.767 6.242l-0.143-0.090 17.016 11.144v-462.296c0-35.376 31.992-64.208 71.248-64.208h610.248c39.296 0 71.248 28.832 71.248 64.208v461.808l16.296-10.648c5.81-3.85 12.937-6.144 20.608-6.144 20.781 0 37.624 16.843 37.624 37.624 0 13.118-6.712 24.663-16.881 31.398l-0.143 0.090z" />
<glyph unicode="&#xe901;" glyph-name="homepage_fill" d="M662.544 120.408l-301.096 0.072v139.824c0 0.944 0.264 1.808 0.264 2.712 1.504 81.864 68.2 148.064 150.288 148.064s148.776-66.24 150.288-148.064c0-0.904 0.264-1.768 0.264-2.712v-139.896zM945.88 623.424l-95.144 62.328v120.776c0 20.785-16.847 37.64-37.64 37.64s-37.64-16.847-37.64-37.64v0-71.512l-242.832 159.168c-5.505 3.459-12.195 5.507-19.372 5.507-0.682 0-1.353-0.016-2.027-0.055l0.095 0.003c-0.422 0.015-0.914 0.031-1.409 0.031-7.144 0-13.802-2.040-19.442-5.571l0.154 0.092-413.256-270.8c-10.308-6.827-17.017-18.372-17.017-31.48 0-20.785 16.847-37.641 37.641-37.641 7.677 0 14.81 2.297 20.767 6.242l-0.143-0.090 17.008 11.176v-462.336c0-35.376 31.952-64.208 71.248-64.208h610.248c39.296 0.040 71.248 28.832 71.248 64.208v461.808l16.296-10.648c5.81-3.85 12.937-6.144 20.608-6.144 20.781 0 37.624 16.843 37.624 37.624 0 13.118-6.712 24.663-16.881 31.398l-0.143 0.090z" />
<glyph unicode="&#xe902;" glyph-name="manage" d="M224 536.16v192.096l192 0.096 0.096-192.096-192.096-0.096zM416.096 792.256h-192.192c-35.282-0.055-63.868-28.651-63.904-63.933v-192.195c0.055-35.271 28.633-63.849 63.899-63.904h192.197c35.282 0.055 63.868 28.651 63.904 63.933v192.163c-0.055 35.271-28.633 63.849-63.899 63.904h-0.005zM224 152.16v192.096l192 0.096 0.096-192.096-192.096-0.096zM416.096 408.256h-192.192c-35.282-0.055-63.868-28.651-63.904-63.933v-192.195c0.055-35.271 28.633-63.849 63.899-63.904h192.197c35.282 0.055 63.868 28.651 63.904 63.933v192.163c-0.055 35.271-28.633 63.849-63.899 63.904h-0.005zM704.064 496.384l-135.84 135.84 135.712 135.84 135.904-135.744-135.776-135.936zM885.088 677.408l-135.904 135.904c-11.575 11.539-27.546 18.674-45.184 18.674s-33.609-7.135-45.186-18.676l-135.902-135.87c-11.525-11.49-18.656-27.383-18.656-44.94 0-0.041 0-0.081 0-0.122v0.006c-0.001-0.11-0.001-0.24-0.001-0.371 0-17.558 7.131-33.451 18.655-44.94l135.906-135.938c11.562-11.553 27.531-18.698 45.168-18.698 17.653 0 33.634 7.158 45.2 18.73l135.904 135.904c11.555 11.568 18.701 27.541 18.701 45.184s-7.146 33.616-18.701 45.185l0.001-0.001zM608 152.16v192.096l192 0.096 0.096-192.096-192.096-0.096zM800.096 408.256h-192.192c-35.282-0.055-63.868-28.651-63.904-63.933v-192.195c0.055-35.271 28.633-63.849 63.899-63.904h192.197c35.282 0.055 63.868 28.651 63.904 63.933v192.163c-0.055 35.271-28.633 63.849-63.899 63.904h-0.005z" />
<glyph unicode="&#xe903;" glyph-name="packup" d="M793.024 249.728c5.838-6.109 14.050-9.906 23.149-9.906 17.673 0 32 14.327 32 32 0 8.749-3.511 16.677-9.2 22.454l0.004-0.004-310.304 320c-5.823 5.999-13.963 9.723-22.972 9.723-9.242 0-17.569-3.918-23.41-10.183l-0.018-0.019-297.696-320c-5.047-5.632-8.132-13.113-8.132-21.315 0-17.673 14.327-32 32-32 9.013 0 17.156 3.726 22.972 9.723l0.008 0.008 274.752 295.328 286.848-295.808z" />
<glyph unicode="&#xe904;" glyph-name="people" d="M856.088 61.699l-686.384-0.041c-0.708 0.066-1.328 0.378-1.801 0.839v0 141.768c0 6.999 7.072 17.851 14.454 20.833 1.263 0.538 82.926 36.167 179.157 60.292 49.285 12.352 102.309 21.754 150.486 21.754 43.777 0 91.685-7.765 137.181-18.462 75.266-18.508 139.708-40.421 201.612-67.124l-8.229 3.157c6.347-2.599 13.533-13.492 13.533-20.45v-142.607zM379.374 669.174c0.173 67.92 55.274 122.914 123.224 122.914 0.011 0 0.023 0 0.043 0h-0.002c0.010 0 0.021 0 0.041 0 67.956 0 123.065-54.99 123.256-122.898v-147.096c-0.2-67.924-55.309-122.914-123.256-122.914-0.011 0-0.023 0-0.043 0h0.002c-0.010 0-0.021 0-0.041 0-67.949 0-123.051 54.994-123.224 122.9v147.094zM872.489 295.070c-4.66 2.061-69.963 30.586-154.494 54.67-21.188 6.567-50.347 13.842-79.956 19.873l-6.791 1.156c43.125 36.55 71.153 90.422 71.153 151.325v147.080c-0.2 110.155-89.543 199.379-199.721 199.379 0 0 0 0 0 0v0c-110.106 0-199.762-89.273-199.762-199.379v-147.080c0-62.549 29.592-117.83 74.933-154.462-30.431-6.42-59.868-14.185-86.975-22.292-56.26-16.804-102.099-33.733-146.658-53.057l8.492 3.275c-34.945-14.030-61.245-53.293-61.245-91.302v-157.321l2.029-5.964c11.358-33.381 41.976-55.819 76.237-55.819h684.583c39.627 0.007 72.373 29.445 77.567 67.646l0.047 0.402 0.652 151.015c0 37.772-26.227 76.962-60.064 90.837z" />
<glyph unicode="&#xe905;" glyph-name="people_fill" d="M879.018 292.3c-4.744 2.098-71.23 31.14-157.292 55.702-21.575 6.678-51.263 14.065-81.409 20.194l-6.909 1.174c43.906 37.212 72.442 92.060 72.442 154.066v149.744c-0.204 112.15-91.165 202.99-203.348 202.99 0 0 0 0 0 0v0c-112.1 0-203.38-90.89-203.38-202.99v-149.744c0-63.682 30.128-119.964 76.29-157.218-30.982-6.578-60.952-14.484-88.55-22.728-57.279-17.108-103.948-34.344-149.314-54.018l8.646 3.334c-35.578-14.284-62.354-54.258-62.354-92.956v-160.18l2.066-6.072c11.564-33.986 42.736-56.788 77.618-56.788h696.992c40.345 0.007 73.684 29.978 78.972 68.871l0.048 0.409 0.664 153.75c0 38.414-26.702 78.314-61.152 92.45z" />
<glyph unicode="&#xe906;" glyph-name="qrcode" d="M224 543.904v192.096l192 0.096 0.096-192.096-192.096-0.096zM416.096 800h-192.192c-35.271-0.055-63.849-28.633-63.904-63.899v-192.197c0.055-35.271 28.633-63.849 63.899-63.904h192.197c35.271 0.055 63.849 28.633 63.904 63.899v192.197c-0.055 35.271-28.633 63.849-63.899 63.904h-0.005zM224 159.904v192.096l192 0.096 0.096-192.096-192.096-0.096zM416.096 416h-192.192c-35.271-0.055-63.849-28.633-63.904-63.899v-192.197c0.055-35.271 28.633-63.849 63.899-63.904h192.197c35.271 0.055 63.849 28.633 63.904 63.899v192.197c-0.055 35.271-28.633 63.849-63.899 63.904h-0.005zM608 543.904v192.096l192 0.096 0.096-192.096-192.096-0.096zM800.096 800h-192.192c-35.271-0.055-63.849-28.633-63.904-63.899v-192.197c0.055-35.271 28.633-63.849 63.899-63.904h192.197c35.271 0.055 63.849 28.633 63.904 63.899v192.197c-0.055 35.271-28.633 63.849-63.899 63.904h-0.005zM704 352c-17.673 0-32-14.327-32-32v0-192c0-17.673 14.327-32 32-32s32 14.327 32 32v0 192c0 17.673-14.327 32-32 32v0zM576 352c-17.673 0-32-14.327-32-32v0-192c0-17.673 14.327-32 32-32s32 14.327 32 32v0 192c0 17.673-14.327 32-32 32v0zM832 416c-17.673 0-32-14.327-32-32v0-256c0-17.673 14.327-32 32-32s32 14.327 32 32v0 256c0 17.673-14.327 32-32 32v0z" />
<glyph unicode="&#xe907;" glyph-name="return" d="M694.272 150.976l-295.808 286.848 295.36 274.752c6.281 5.859 10.196 14.184 10.196 23.424 0 17.675-14.329 32.004-32.004 32.004-8.436 0-16.109-3.264-21.827-8.598l0.019 0.017-320-297.696c-6.294-5.86-10.219-14.193-10.219-23.443 0-9.002 3.717-17.135 9.699-22.95l0.008-0.007 320-310.304c5.652-5.108 13.181-8.233 21.439-8.233 17.691 0 32.032 14.341 32.032 32.032 0 8.601-3.39 16.41-8.906 22.164l0.011-0.011z" />
<glyph unicode="&#xe908;" glyph-name="setup" d="M825.312 393.184c-39.428-6.019-72.392-29.431-91.29-62.015l-0.326-0.609c-10.856-18.342-17.271-40.424-17.271-64.005 0-16.758 3.24-32.759 9.127-47.411l-0.304 0.856c-31.633-28.446-69.382-50.8-110.967-64.814l-2.249-0.658c-23.481 29.377-59.312 48.033-99.499 48.033-0.187 0-0.374 0-0.561-0.001h0.029c-0.157 0.001-0.343 0.001-0.528 0.001-40.192 0-76.031-18.641-99.341-47.749l-0.195-0.252c-43.83 14.67-81.578 37.013-113.51 65.7l0.294-0.26c5.592 13.805 8.836 29.818 8.836 46.588 0 23.567-6.408 45.638-17.576 64.565l0.324-0.593c-19.23 33.2-52.207 56.614-90.942 62.535l-0.706 0.089c-4.25 19.658-6.684 42.241-6.684 65.392s2.434 45.734 7.060 67.507l-0.376-2.115c39.432 6.012 72.404 29.411 91.322 61.984l0.326 0.608c10.845 18.34 17.253 40.417 17.253 63.99 0 16.775-3.245 32.792-9.141 47.458l0.304-0.856c31.633 28.446 69.382 50.8 110.967 64.814l2.249 0.658c23.511-29.397 59.376-48.065 99.602-48.065 0.162 0 0.325 0 0.487 0.001h-0.025c39.712 0 76.064 17.92 100.032 48.064 43.836-14.665 81.586-37.020 113.507-65.729l-0.291 0.257c-5.582-13.8-8.821-29.805-8.821-46.566 0-23.588 6.414-45.677 17.593-64.62l-0.324 0.594c19.237-33.174 52.197-56.571 90.908-62.503l0.708-0.089c4.273-19.658 6.72-42.239 6.72-65.392s-2.447-45.734-7.097-67.5l0.377 2.108zM881.472 563.488c-3.846 13.532-16.094 23.277-30.618 23.277-0.779 0-1.551-0.028-2.316-0.083l0.103 0.006c-1.294-0.094-2.803-0.147-4.324-0.147-23.503 0-44.028 12.752-55.033 31.715l-0.163 0.305c-5.44 9.19-8.655 20.254-8.655 32.070 0 13.217 4.023 25.494 10.91 35.675l-0.143-0.225c3.338 4.973 5.327 11.094 5.327 17.68 0 8.654-3.435 16.505-9.016 22.265l0.008-0.008c-48.315 49.82-109.89 86.518-179.034 104.407l-2.662 0.585c-2.348 0.617-5.043 0.972-7.821 0.972-12.496 0-23.317-7.17-28.575-17.62l-0.084-0.184c-10.612-21.266-32.211-35.616-57.163-35.616-0.075 0-0.15 0-0.225 0h0.012c-0.063 0-0.138 0-0.213 0-24.951 0-46.551 14.35-56.996 35.248l-0.167 0.368c-5.351 10.632-16.177 17.798-28.676 17.798-2.772 0-5.461-0.352-8.026-1.015l0.222 0.049c-71.805-18.457-133.382-55.146-181.602-104.863l-0.094-0.097c-5.599-5.757-9.052-13.626-9.052-22.302 0-6.594 1.994-12.721 5.412-17.813l-0.073 0.115c6.745-9.95 10.768-22.221 10.768-35.433 0-11.811-3.215-22.87-8.818-32.351l0.162 0.296c-11.192-19.267-31.732-32.015-55.249-32.015-1.503 0-2.993 0.052-4.47 0.154l0.199-0.011c-0.711 0.057-1.538 0.089-2.374 0.089-14.48 0-26.68-9.764-30.374-23.068l-0.053-0.222c-9.222-31.314-14.528-67.29-14.528-104.506 0-0.148 0-0.297 0-0.445v0.023c0-35.648 4.864-70.944 14.528-104.896 3.896-13.534 16.168-23.268 30.713-23.268 0.734 0 1.463 0.025 2.185 0.074l-0.098-0.005c1.213 0.082 2.63 0.129 4.057 0.129 23.583 0 44.188-12.749 55.299-31.73l0.164-0.303c12.256-21.184 11.456-47.040-2.112-67.456-3.338-4.973-5.327-11.094-5.327-17.679 0-8.669 3.448-16.534 9.046-22.297l-0.007 0.008c48.303-49.83 109.884-86.523 179.038-104.378l2.658-0.582c2.357-0.623 5.063-0.98 7.853-0.98 12.481 0 23.29 7.16 28.544 17.597l0.084 0.183c10.609 21.248 32.194 35.584 57.127 35.584 0.087 0 0.175 0 0.262-0.001h-0.013c24.512 0 46.496-13.632 57.376-35.584 5.351-10.632 16.177-17.798 28.676-17.798 2.772 0 5.461 0.352 8.026 1.015l-0.222-0.049c71.812 18.455 133.391 55.157 181.6 104.893l0.096 0.099c5.588 5.754 9.033 13.616 9.033 22.282 0 6.602-1.999 12.737-5.425 17.832l0.073-0.115c-6.733 9.943-10.748 22.204-10.748 35.403 0 11.797 3.208 22.844 8.798 32.318l-0.162-0.297c11.052 19.285 31.515 32.069 54.963 32.069 1.604 0 3.193-0.060 4.767-0.177l-0.21 0.013c15.040-0.896 28.704 8.736 32.832 23.2 9.222 31.378 14.528 67.426 14.528 104.714 0 0.064 0 0.128 0 0.192v-0.010c0 35.648-4.896 70.944-14.528 104.96zM512 362.56c-52.928 0-96 43.104-96 96 0 52.96 43.072 96 96 96s96-43.040 96-96c0-52.896-43.072-96-96-96zM512 618.56c-88.224 0-160-71.744-160-160 0-88.224 71.776-160 160-160s160 71.808 160 160c0 88.256-71.776 160-160 160z" />
<glyph unicode="&#xe909;" glyph-name="undo" d="M596.16 675.936h-337.6l101.376 101.44c5.783 5.787 9.36 13.78 9.36 22.608 0 17.664-14.32 31.984-31.984 31.984-8.836 0-16.835-3.583-22.624-9.376v0l-136.128-136.096c-11.904-11.872-18.496-27.84-18.56-44.8-0.002-0.18-0.003-0.392-0.003-0.605 0-17.457 7.096-33.257 18.561-44.672l136.13-136.162c5.78-5.812 13.782-9.409 22.624-9.409s16.844 3.597 22.623 9.408l0.001 0.001c5.797 5.787 9.382 13.787 9.382 22.624s-3.586 16.837-9.382 22.624l-106.752 106.496h342.976c114.88 0 208.32-93.312 208.32-208s-93.44-208-208.32-208h-223.36c-17.673 0-32-14.327-32-32s14.327-32 32-32v0h223.36c150.144 0 272.32 122.016 272.32 272s-122.176 272-272.32 272z" />
<glyph unicode="&#xe90a;" glyph-name="unfold" d="M231.424 613.792c-5.824 6.004-13.967 9.731-22.98 9.731-17.673 0-32-14.327-32-32 0-8.201 3.085-15.682 8.159-21.345l-0.027 0.030 297.696-320c5.859-6.285 14.186-10.203 23.428-10.203 9.009 0 17.149 3.723 22.964 9.715l0.008 0.008 310.304 320c5.686 5.773 9.197 13.701 9.197 22.45 0 17.673-14.327 32-32 32-9.099 0-17.311-3.797-23.137-9.894l-0.012-0.012-286.848-295.808-274.752 295.36z" />
<glyph unicode="&#xe90b;" glyph-name="vip-fill" d="M971.264 606.208l-48.64-323.584c-1.536-10.752-5.12-20.992-9.728-30.72-5.12 1.536-10.752 2.048-16.384 2.048-33.792 0-61.44-25.088-66.048-57.856-2.56 0-5.12-0.512-7.68-0.512h-620.544c-2.56 0-5.12 0-7.68 0.512-4.608 32.768-32.256 57.856-66.048 57.856-5.632 0-11.264-1.024-16.384-2.048-4.608 9.216-8.192 19.456-9.728 30.72l-48.64 323.584c-31.232 12.288-53.248 42.496-53.248 78.336 0 46.592 37.376 83.968 83.456 83.968s83.456-37.376 83.456-83.968c0-36.352-23.040-67.072-54.784-78.848 23.552-84.992 84.992-146.944 176.64-146.944 91.136 0 166.912 77.312 166.912 189.44v5.632c-35.328 18.432-59.904 55.808-59.904 98.304 0 61.44 49.152 110.592 110.080 110.592 2.048 0 3.584-0.512 5.632-0.512s3.584 0.512 5.632 0.512c60.928 0 110.080-49.664 110.080-110.592 0-43.008-24.064-79.872-59.904-98.304v-5.632c0-112.128 75.776-189.44 166.912-189.44 92.16 0 153.088 62.464 176.64 146.944-32.256 11.776-54.784 42.496-54.784 78.848 0 46.592 37.376 83.968 83.456 83.968s83.456-37.376 83.456-83.968c1.024-35.328-20.992-66.048-52.224-78.336zM192.512 167.424h640c6.656-21.504 24.064-38.4 45.568-44.544l-5.12-38.4c-4.096-29.184-28.672-51.2-57.856-51.2h-605.184c-29.184 0-54.272 22.016-57.856 51.2l-5.12 38.4c21.504 6.144 38.912 23.040 45.568 44.544z" />
<glyph unicode="&#xe90c;" glyph-name="vip" horiz-adv-x="1229" d="M1126.4 550.4c-56.576 0-102.4 45.824-102.4 102.4s45.824 102.4 102.4 102.4c56.576 0 102.4-45.824 102.4-102.4s-45.824-102.4-102.4-102.4zM1126.4 704c-28.262 0-51.2-22.938-51.2-51.2s22.938-51.2 51.2-51.2c28.262 0 51.2 22.938 51.2 51.2s-22.938 51.2-51.2 51.2zM1024 192c0 0 0-101.018 0-153.6s-46.182-102.4-102.4-102.4c0 0-614.4 0-614.4 0-65.587 0-102.4 29.747-102.4 102.4 0 32.922-0.205 139.264 0 153.6 0 0-51.2 307.2-51.2 307.2s229.018-47.104 229.018-47.104c0 0 231.782 251.904 231.782 251.904s227.584-252.058 227.584-252.058c0 0 233.216 47.258 233.216 47.258s-51.2-307.2-51.2-307.2zM256 38.4c0-27.085 22.528-51.2 51.2-51.2 0 0 578.611 0 614.4 0s51.2 25.958 51.2 51.2c0 25.242 0 102.4 0 102.4s-716.8 0-716.8 0c-0.41-29.184 0-80.589 0-102.4zM819.2 396.8c0 0-204.8 204.8-204.8 204.8s-204.8-204.8-204.8-204.8c0 0-204.8 51.2-204.8 51.2s51.2-256 51.2-256c0 0 716.8 0 716.8 0s51.2 256 51.2 256c0 0-204.8-51.2-204.8-51.2zM614.4 755.2c-56.576 0-102.4 45.824-102.4 102.4s45.824 102.4 102.4 102.4c56.576 0 102.4-45.824 102.4-102.4s-45.824-102.4-102.4-102.4zM614.4 908.8c-28.262 0-51.2-22.938-51.2-51.2s22.938-51.2 51.2-51.2c28.262 0 51.2 22.938 51.2 51.2s-22.938 51.2-51.2 51.2zM102.4 550.4c-56.576 0-102.4 45.824-102.4 102.4s45.824 102.4 102.4 102.4c56.576 0 102.4-45.824 102.4-102.4s-45.824-102.4-102.4-102.4zM102.4 704c-28.262 0-51.2-22.938-51.2-51.2s22.938-51.2 51.2-51.2c28.262 0 51.2 22.938 51.2 51.2s-22.938 51.2-51.2 51.2z" />
<glyph unicode="&#xe90d;" glyph-name="add" d="M512 128c17.673 0 32 14.327 32 32v0 256h256c17.673 0 32 14.327 32 32s-14.327 32-32 32v0h-256v256c0 17.673-14.327 32-32 32s-32-14.327-32-32v0-256h-256c-17.673 0-32-14.327-32-32s14.327-32 32-32v0h256v-256c0-17.673 14.327-32 32-32v0z" />
<glyph unicode="&#xe90e;" glyph-name="close" d="M544.448 460.8l284.576 284.576c5.558 5.749 8.983 13.59 8.983 22.231 0 17.673-14.327 32-32 32-8.641 0-16.482-3.425-22.24-8.991l-284.567-284.567-284.576 284.576c-5.749 5.558-13.59 8.983-22.231 8.983-17.673 0-32-14.327-32-32 0-8.641 3.425-16.482 8.991-22.24l284.567-284.567-284.576-284.576c-5.558-5.749-8.983-13.59-8.983-22.231 0-17.673 14.327-32 32-32 8.641 0 16.482 3.425 22.24 8.991l284.567 284.567 284.576-284.576c5.78-5.812 13.782-9.409 22.624-9.409s16.844 3.597 22.623 9.408l0.001 0.001c5.789 5.791 9.369 13.789 9.369 22.624s-3.58 16.833-9.369 22.624l-284.576 284.576z" />
<glyph unicode="&#xe90f;" glyph-name="narrow" d="M448.544 464h-192.544c-17.673 0-32-14.327-32-32s14.327-32 32-32v0l146.976 0.192-233.6-233.568c-5.558-5.749-8.983-13.59-8.983-22.231 0-17.673 14.327-32 32-32 8.641 0 16.482 3.425 22.24 8.991l233.655 233.623v-147.264c0-17.673 14.327-32 32-32s32 14.327 32 32v0 192.512c-0.055 35.183-28.561 63.689-63.739 63.744h-0.005zM838.624 758.624c-5.787 5.797-13.787 9.382-22.624 9.382s-16.837-3.586-22.624-9.382v0l-217.376-217.376v146.752c0 17.673-14.327 32-32 32s-32-14.327-32-32v0-192.544c0-35.136 28.608-63.712 63.744-63.712h192.512c17.673 0 32 14.327 32 32s-14.327 32-32 32v0l-147.488-0.224 217.856 217.856c5.797 5.787 9.382 13.787 9.382 22.624s-3.586 16.837-9.382 22.624v0z" />
<glyph unicode="&#xe910;" glyph-name="download" horiz-adv-x="1149" d="M1041.494 451.122h-270.4v442.472c0 27.138-22.025 49.163-49.163 49.163h-294.981c-27.138 0-49.163-22.025-49.163-49.163v-442.472h-310.394l39.994-40.019v-9.169h9.169l457.885-457.861 457.885 457.885h9.169v9.169l39.994 39.994h-39.994zM574.44 13.591l-388.368 388.368h240.877v467.054c0 13.594 11.013 24.582 24.582 24.582h245.818c13.594 0 24.582-10.988 24.582-24.582v-467.054h240.877l-388.368-388.368z" />
<glyph unicode="&#xe911;" glyph-name="fullscreen" d="M409.376 406.624l-185.376-185.376v130.752c0 17.673-14.327 32-32 32s-32-14.327-32-32v0-192.544c0-3.488 0.48-6.848 1.024-10.176-0.362-1.791-0.569-3.85-0.569-5.957 0-8.54 3.403-16.285 8.928-21.954l-0.007 0.007c2.336-2.336 5.152-3.808 7.904-5.248 11.648-12.48 28.096-20.384 46.464-20.384h192.512c17.673 0 32 14.327 32 32s-14.327 32-32 32v0l-163.488-0.224 201.856 201.856c5.79 5.79 9.371 13.789 9.371 22.624 0 17.67-14.325 31.995-31.995 31.995-8.835 0-16.834-3.581-22.624-9.371v0zM800.512 800h-192.512c-17.673 0-32-14.327-32-32s14.327-32 32-32v0l146.944 0.192-201.568-201.568c-5.79-5.79-9.371-13.789-9.371-22.624 0-17.67 14.325-31.995 31.995-31.995 8.835 0 16.834 3.581 22.624 9.371l201.632 201.632v-147.264c0-17.673 14.327-32 32-32s32 14.327 32 32v0 192.512c-0.055 35.183-28.561 63.689-63.739 63.744h-0.005z" />
<glyph unicode="&#xe912;" glyph-name="history" d="M511.998 896c-247.424 0-447.998-200.574-447.998-447.998s200.574-448.002 447.998-448.002 448.002 200.578 448.002 448.002-200.578 447.998-448.002 447.998zM865.849 298.562c-82.215-194.648-306.657-285.794-501.306-203.579s-285.794 306.657-203.579 501.306 306.657 285.794 501.306 203.579c168.009-70.963 262.57-250.652 225.926-429.313-5.722-27.482-13.428-51.561-23.303-74.487l0.956 2.494zM543.311 461.361v242.518c0 17.657-14.314 31.97-31.97 31.97s-31.97-14.314-31.97-31.97v-269.005l201.481-201.481c12.485-12.485 32.728-12.485 45.213 0s12.485 32.728 0 45.213l-182.754 182.755z" />
<glyph unicode="&#xe913;" glyph-name="star" d="M363.7 621.020c-32.96 0-57.67-24.72-57.67-57.67s24.72-57.67 57.67-57.67 57.67 24.72 57.67 57.67c0 32.96-24.72 57.67-57.67 57.67zM363.7 522.15c-16.48 0-41.2 16.48-41.2 41.2 0 16.48 16.48 41.2 41.2 41.2 16.48 0 41.2-16.48 41.2-41.2s-24.72-41.2-41.2-41.2zM965.15 711.65c-24.72 49.43-115.35 57.67-247.17 24.72-57.67 49.43-123.59 65.91-197.74 65.91-197.74 0-362.52-156.54-362.52-354.28v-8.24c-90.63-90.63-123.59-164.78-98.87-214.22 16.48-32.96 57.67-49.43 115.35-49.43 24.72 0 49.43 0 82.39 8.24h16.48c65.91-57.67 148.3-98.87 247.17-98.87 197.74 0 354.28 156.54 354.28 354.28 0 16.48 0 41.2-8.24 57.67l24.72 24.72c74.15 82.39 98.87 148.3 74.15 189.5zM75.33 233.78c-16.48 32.96 8.24 98.87 82.39 173.020 8.24-74.15 41.2-148.3 90.63-197.74-90.63-16.48-148.3-8.24-173.020 24.72zM207.15 448c0 173.020 140.060 313.090 313.090 313.090 156.54 0 288.37-115.35 304.85-263.65-41.2-32.96-90.63-74.15-140.060-107.11 0 41.2-32.96 82.39-82.39 82.39-41.2 0-82.39-32.96-82.39-82.39 0-32.96 16.48-57.67 41.2-65.91-90.63-49.43-181.26-82.39-263.65-107.11-57.67 57.67-90.63 140.060-90.63 230.69zM660.3 390.33v-16.48c-24.72-8.24-41.2-24.72-65.91-32.96-24.72 0-41.2 24.72-41.2 49.43 0 32.96 24.72 57.67 49.43 57.67 32.96 0 57.67-24.72 57.67-57.67zM520.24 134.91c-74.15 0-140.060 24.72-189.5 65.91 82.39 24.72 181.26 57.67 271.89 115.35h8.24c32.96 0 57.67 16.48 74.15 49.43 57.67 32.96 107.11 74.15 148.3 107.11v-24.72c-8.24-173.020-148.3-313.090-313.090-313.090zM866.28 530.39c-24.72 82.39-65.91 148.3-123.59 197.74 107.11 24.72 181.26 16.48 205.98-24.72 16.48-32.96-8.24-90.63-74.15-164.78 0 0-8.24 0-8.24-8.24z" />
<glyph unicode="&#xe914;" glyph-name="star-fill" d="M146.921 154.157c26.713 0 53.426 0 89.043 8.904h17.809c17.809-17.809 35.617-26.713 53.426-44.522 0-8.904 0-8.904 8.904-8.904h8.904c53.426-35.617 115.757-53.426 186.991-53.426 213.704 0 382.887 169.183 382.887 382.887 0 17.809 0 44.522-8.904 62.33l26.713 26.713c80.139 80.139 106.852 151.375 80.139 204.8s-124.661 62.33-267.13 26.713c-53.426 53.426-124.661 71.235-204.8 71.235-213.704 0-391.791-169.183-391.791-382.887v-8.904c-97.948-97.948-133.565-178.087-106.852-231.513 17.809-35.617 62.33-53.426 124.661-53.426zM227.061 617.183c35.617 17.809 71.235 26.713 106.852 53.426 53.426 26.713 89.043 71.235 124.661 106.852 17.809 0 35.617 8.904 53.426 8.904-26.713-62.33-71.235-124.661-133.565-169.183-62.33-35.617-124.661-35.617-169.183-35.617 8.904 17.809 8.904 26.713 17.809 35.617zM227.061 563.757c44.522 0 106.852 8.904 160.278 44.522 71.235 35.617 124.661 115.757 151.375 178.087 26.713 0 44.522-8.904 71.235-8.904-17.809-53.426-62.33-151.375-160.278-222.609-71.235-44.522-213.704-89.043-267.13-89.043 0 35.617 8.904 62.33 17.809 97.948h26.713zM182.539 439.096c71.235 0 213.704 53.426 276.035 97.948 106.852 71.235 151.375 178.087 169.183 231.513 26.713-8.904 44.522-17.809 71.235-35.617-17.809-97.948-89.043-195.896-204.8-276.035-97.948-71.235-213.704-106.852-302.748-97.948-8.904 26.713-8.904 53.426-8.904 80.139zM218.157 332.243c89.043 0 195.896 35.617 293.843 106.852 106.852 80.139 186.991 186.991 204.8 284.939 17.809-17.809 44.522-35.617 62.33-53.426-8.904-115.757-89.043-222.609-213.704-311.652-106.852-80.139-231.513-115.757-320.556-106.852-17.809 26.713-35.617 53.426-44.522 80.139h17.809zM271.583 225.391c97.948 0 204.8 44.522 311.652 115.757 115.757 80.139 195.896 186.991 213.704 284.939 26.713-35.617 44.522-80.139 44.522-124.661v-8.904c-62.33-53.426-151.375-115.757-249.323-169.183-106.852-53.426-213.704-97.948-302.748-124.661l-26.713 26.713h8.904zM601.043 305.53c89.043 44.522 160.278 97.948 231.513 151.375-26.713-80.139-97.948-160.278-186.991-222.609-80.139-62.33-178.087-97.948-258.227-97.948-26.713 8.904-53.426 26.713-80.139 44.522 97.948 26.713 195.896 71.235 293.843 124.661zM520.904 109.635c-26.713 0-44.522 0-71.235 8.904 71.235 17.809 142.47 44.522 213.704 97.948 89.043 62.33 160.278 142.47 186.991 222.609 0-178.087-151.375-329.461-329.461-329.461zM983.931 724.035c17.809-35.617-8.904-97.948-80.139-178.087l-8.904-8.904c-26.713 89.043-71.235 160.278-133.565 213.704 115.757 26.713 195.896 17.809 222.609-26.713zM414.052 768.556c-26.713-26.713-53.426-53.426-89.043-80.139-26.713-8.904-53.426-26.713-71.235-35.617 35.617 53.426 97.948 97.948 160.278 115.757zM129.113 403.478c8.904-80.139 44.522-160.278 97.948-213.704-97.948-17.809-160.278-8.904-186.991 26.713-17.809 44.522 17.809 106.852 89.043 186.991z" />
<glyph unicode="&#xe915;" glyph-name="find" d="M512 920c-260.684 0-472-211.316-472-472s211.316-472 472-472c260.684 0 472 211.316 472 472s-211.323 472-472 472zM512 17.041c-237.632 0-430.956 193.324-430.956 430.959s193.32 430.956 430.956 430.956c237.629 0 430.956-193.322 430.956-430.956s-193.322-430.959-430.956-430.959zM752.708 716.478l-326.595-174.136c-3.613-1.954-6.502-4.843-8.403-8.348l-0.053-0.108-174.136-326.599c-1.522-2.799-2.419-6.125-2.419-9.663 0-11.331 9.184-20.516 20.516-20.516 3.537 0 6.868 0.896 9.769 2.471l-0.107-0.053 326.595 174.139c3.615 1.952 6.506 4.843 8.405 8.348l0.053 0.108 174.139 326.594c1.518 2.797 2.412 6.119 2.412 9.653 0 11.335-9.187 20.522-20.522 20.522-3.535 0-6.863-0.895-9.764-2.467l0.107 0.053zM573.061 386.932l-261.611-139.478 139.482 261.611 261.611 139.476-139.482-261.609zM470.956 448c0-10.745 4.423-21.428 12.020-29.024s18.279-12.020 29.024-12.020 21.426 4.423 29.024 12.020c7.596 7.596 12.020 18.279 12.020 29.024s-4.423 21.428-12.020 29.024c-7.598 7.596-18.279 12.020-29.024 12.020s-21.426-4.423-29.024-12.020c-7.596-7.596-12.020-18.279-12.020-29.024z" />
<glyph unicode="&#xe916;" glyph-name="find-fill" d="M304.064 232.312l287.736 128.592 128.136 287.736-287.736-128.592-128.136-287.736zM475.064 479.464c20.064 20.064 52.896 20.064 73.416 0 20.064-20.064 20.064-52.896 0-73.416-20.064-20.064-52.896-20.064-73.416 0-20.52 20.52-20.52 53.352 0 73.416zM512 904c-251.256 0-456-204.744-456-456s204.744-456 456-456 456 204.744 456 456-204.744 456-456 456zM780.128 681.016l-154.128-344.28c-2.28-4.56-5.928-8.208-10.488-10.488l-344.28-153.672c-2.736-1.368-5.472-1.824-8.664-1.824-5.472 0-10.488 2.28-14.592 5.928-5.928 5.928-7.752 15.048-4.104 23.256l154.128 344.28c2.28 4.56 5.928 8.208 10.488 10.488l344.28 153.672c7.752 3.648 16.872 1.824 23.256-4.104 5.928-6.384 7.752-15.504 4.104-23.256z" />
<glyph unicode="&#xe917;" glyph-name="message" d="M510.779 114.179c-28.579 0-56.44 2.584-83.527 7.072l-195.783-118.802v197.777c-102.074 71.665-167.586 181.56-167.586 304.987 0 215.96 200.084 391.029 446.896 391.029 246.815 0 446.896-175.069 446.896-391.029 0.001-215.966-200.081-391.035-446.896-391.035zM510.779 840.381c-215.963 0-391.035-150.063-391.035-335.167 0-113.579 66.074-213.781 166.893-274.401l-1.762-129.556 131.486 79.031c30.291-6.452 61.801-10.25 94.418-10.25 215.966 0 391.035 150.060 391.035 335.176 0 185.105-175.069 335.167-391.035 335.167zM734.227 449.352c-30.85 0-55.862 25.007-55.862 55.862 0 30.85 25.013 55.856 55.862 55.856 30.853 0 55.862-25.007 55.862-55.856 0-30.856-25.010-55.862-55.862-55.862zM510.779 449.352c-30.853 0-55.862 25.007-55.862 55.862 0 30.85 25.010 55.856 55.862 55.856s55.862-25.007 55.862-55.856c0-30.856-25.010-55.862-55.862-55.862zM287.331 449.352c-30.85 0-55.859 25.007-55.859 55.862 0 30.85 25.010 55.856 55.859 55.856 30.853 0 55.862-25.007 55.862-55.856 0-30.856-25.010-55.862-55.862-55.862z" />
<glyph unicode="&#xe918;" glyph-name="search" d="M802.56 193.92l-127.957 127.957c34.688 43.861 55.509 99.072 55.509 159.147 0 141.952-115.456 257.451-257.408 257.451s-257.451-115.499-257.451-257.451 115.499-257.408 257.451-257.408c66.517 0 127.061 25.6 172.757 67.115l126.976-127.019c4.181-4.181 9.643-6.229 15.104-6.229s10.923 2.091 15.104 6.229c8.235 8.363 8.235 21.888-0.085 30.208zM257.877 481.024c0 118.4 96.384 214.784 214.784 214.784s214.741-96.384 214.741-214.784-96.341-214.741-214.741-214.741-214.784 96.341-214.784 214.741z" />
<glyph unicode="&#xe919;" glyph-name="series" d="M271.348 465.399h96.923l-38.744-208.555h58.159l38.786 208.555h77.551l19.35 56.851h-232.632l-21.035-52.402 1.642-4.448zM639.734 332.668l-38.766 189.582h-58.201l38.808-265.406h77.552l96.923 265.406h-58.18l-58.137-189.582zM667.593-8.505h-309.601c-15.636 0-31.616-0.14-31.616-15.851 0-15.615 12.742-28.357 28.291-28.357h321.068c15.571 0 28.27 12.742 28.27 28.357 0 15.712 1.338 15.851-14.275 15.851h-22.137zM988.166 743.395h-950.661c-20.841 0-33.344-12.547-33.344-33.572v-585.653c0-20.927 9.632-44.207 44.208-44.207h928.825c20.862 0 44.229 23.183 44.229 44.207v585.653c0.13 20.927-12.353 33.572-33.257 33.572v0 0 0 0zM977.194 146.306c0-10.496-11.662-22.136-22.114-22.136h-884.577c-10.452 0-21.364 4.729-21.364 15.171l-0.772 537.722c0 10.485 11.683 22.072 22.135 22.072h884.577c10.452 0 22.114-11.63 22.114-22.072v-530.756z" />
<glyph unicode="&#xe91a;" glyph-name="movie" d="M458.691 441.602c0-28.278 22.924-51.2 51.2-51.2 28.278 0 51.2 22.922 51.2 51.2 0 28.275-22.922 51.195-51.2 51.195-28.276 0-51.2-22.925-51.2-51.195zM260.296 253.887c0-61.251 49.651-110.907 110.909-110.907 61.254 0 110.91 49.656 110.91 110.907 0 61.259-49.656 110.916-110.91 110.916-61.258 0-110.909-49.657-110.909-110.916zM539.779 253.887c0-61.251 49.651-110.907 110.91-110.907s110.908 49.656 110.908 110.907c0 61.259-49.649 110.916-110.908 110.916s-110.91-49.657-110.91-110.916zM172.867 518.401c0-61.259 49.66-110.913 110.914-110.913 61.252 0 110.908 49.654 110.908 110.913 0 61.254-49.656 110.91-110.908 110.91-61.254 0.001-110.914-49.656-110.914-110.91zM629.311 518.401c0-61.259 49.662-110.913 110.913-110.913 61.254 0 110.916 49.654 110.916 110.913 0 61.254-49.662 110.91-110.916 110.91-61.251 0.001-110.913-49.656-110.913-110.91zM401.088 684.798c0-61.251 49.661-110.913 110.915-110.913 61.251 0 110.913 49.662 110.913 110.913 0 61.254-49.662 110.915-110.913 110.915-61.254 0-110.915-49.661-110.915-110.915zM938.688 21.314h-142.912c138.623 91.775 228.221 249.602 228.221 426.686 0 283.71-228.221 512-511.994 512-283.778 0-512-228.29-512-512 0-283.778 228.222-512 512-512h426.681c23.427 0 42.623 19.201 42.623 42.691 0 23.427-19.201 42.623-42.623 42.623h0.004zM512.003 21.314c-234.69 0-426.687 192.067-426.687 426.686 0 234.688 191.997 426.687 426.687 426.687 234.687 0 426.686-191.998 426.686-426.687-0.001-234.627-192-426.686-426.686-426.686z" />
<glyph unicode="&#xe91b;" glyph-name="anime" d="M510.4 30.4c-214.4 0-387.2 174.4-387.2 387.2 0 30.4 3.2 59.2 9.6 88-67.2 30.4-110.4 96-110.4 171.2 0 104 84.8 188.8 188.8 188.8 65.6 0 124.8-33.6 158.4-86.4 44.8 17.6 92.8 27.2 142.4 27.2s97.6-9.6 142.4-27.2c33.6 54.4 92.8 86.4 158.4 86.4 104 0 188.8-84.8 188.8-188.8 0-75.2-44.8-140.8-110.4-171.2 6.4-28.8 9.6-59.2 9.6-88-3.2-212.8-176-387.2-390.4-387.2z" />
<glyph unicode="&#xe91c;" glyph-name="laifeng" d="M513.024 898.56q93.184 0 175.104-35.328t142.848-96.768 96.256-143.872 35.328-175.616-35.328-175.616-96.256-143.872-142.848-96.768-175.104-35.328-175.104 35.328-142.848 96.768-96.256 143.872-35.328 175.616 35.328 175.616 96.256 143.872 142.848 96.768 175.104 35.328zM690.176 403.968q10.24 10.24 15.872 26.624t5.632 33.792-6.144 33.792-18.432 25.6q-48.128 35.84-103.936 83.456t-120.32 89.6q-14.336 9.216-28.16 8.704t-25.088-8.192-17.92-22.528-6.656-35.328v-386.048q0-23.552 8.704-36.864t22.016-17.92 28.16-2.048 26.112 11.776q25.6 19.456 53.76 44.032t56.832 50.176 56.32 51.712 53.248 49.664z" />
<glyph unicode="&#xe91d;" glyph-name="rank" horiz-adv-x="1093" d="M912.085 452.566c-4.761 0-8.855 0.809-12.302 2.472-3.441 1.652-6.335 3.87-8.629 6.624-2.294 2.79-4.065 6.105-5.301 9.935-1.206 3.842-1.914 7.855-2.062 12.066h-31.035c-0.16-9.166 1.188-17.299 4.024-24.358 2.84-7.058 6.859-13.024 12.077-17.917 5.212-4.899 11.523-8.612 18.952-11.165 7.447-2.542 15.684-3.842 24.735-3.842 7.822 0 15.321 1.149 22.537 3.402 7.202 2.242 13.58 5.563 19.071 9.9 5.533 4.378 9.942 9.778 13.241 16.236 3.292 6.475 4.932 13.84 4.932 22.1 0 9.015-2.519 16.767-7.577 23.22-5.063 6.475-12.059 10.669-20.944 12.62v0.467c7.53 2.085 13.157 6.077 16.908 11.951 3.756 5.851 5.646 12.626 5.646 20.28 0 7.075-1.611 13.314-4.838 18.714-3.221 5.424-7.399 9.999-12.527 13.759-5.141 3.76-10.93 6.585-17.359 8.445-6.442 1.884-12.867 2.836-19.314 2.836-8.284 0-15.797-1.317-22.537-3.951-6.74-2.645-12.527-6.36-17.353-11.176-4.838-4.801-8.599-10.553-11.286-17.243-2.669-6.682-4.166-14.093-4.474-22.196h31.046c-0.16 8.103 1.871 14.85 6.086 20.169 4.231 5.326 10.46 8 18.744 8 5.967 0 11.268-1.801 15.862-5.4 4.595-3.621 6.906-8.797 6.906-15.56 0-4.511-1.117-8.116-3.329-10.825-2.235-2.697-5.069-4.782-8.511-6.203-3.464-1.433-7.192-2.293-11.155-2.582-4-0.3-7.744-0.3-11.268 0v-22.556c3.982 0 8.165-0.109 12.527-0.33 4.362-0.231 8.398-1.074 12.071-2.471 3.673-1.439 6.709-3.732 9.087-6.892 2.378-3.153 3.56-7.745 3.56-13.758 0-7.665-2.526-13.707-7.583-18.155-5.066-4.44-11.265-6.617-18.628-6.617v0 0zM529.115 802.174h32.651v157.826h-25.977c-0.92-6.014-2.84-11.062-5.759-15.116-2.906-4.060-6.46-7.33-10.68-9.796-4.231-2.472-8.967-4.228-14.269-5.199-5.276-0.976-10.756-1.409-16.431-1.23v-24.138h40.465v-102.346zM194.355 662.82c-3.311-2.997-6.953-5.742-10.918-8.213-4.004-2.502-7.761-4.939-11.286-7.342-6.887-4.656-13.431-9.254-19.664-13.741-6.206-4.511-11.596-9.462-16.208-14.765-4.587-5.337-8.231-11.396-10.922-18.154-2.675-6.763-4.018-14.735-4.018-23.919h118.201v27.518h-76.112c3.982 5.424 8.576 10.142 13.787 14.203 5.218 4.043 10.58 7.844 16.095 11.384 5.526 3.536 11.006 7.105 16.45 10.726 5.45 3.587 10.3 7.602 14.596 12.050 4.296 4.418 7.738 9.5 10.347 15.208 2.614 5.736 3.904 12.563 3.904 20.528 0 7.658-1.497 14.572-4.481 20.741-2.984 6.175-6.995 11.333-12.065 15.56-5.057 4.211-10.924 7.429-17.603 9.687-6.656 2.254-13.681 3.397-21.021 3.397-9.681 0-18.208-1.63-25.656-4.857-7.429-3.241-13.597-7.751-18.5-13.522-4.922-5.782-8.594-12.557-11.042-20.302-2.454-7.735-3.524-16.104-3.227-25.12h31.279c0 4.188 0.421 8.439 1.26 12.712 0.855 4.293 2.27 8.208 4.249 11.732 2.002 3.54 4.64 6.376 7.939 8.56 3.298 2.188 7.329 3.269 12.089 3.269 7.030 0 12.824-2.12 17.347-6.423 4.529-4.275 6.781-10.247 6.781-17.917 0-4.818-1.105-9.092-3.333-12.853-2.211-3.754-4.987-7.139-8.267-10.148v0 0zM1023.778 363.897h-217.8v-427.892h219.227c36.99 0 67.061 29.504 67.061 65.761v295.262c0 36.868-30.714 66.869-68.488 66.869v0 0zM747.344 689.027c0 36.377-30.095 65.974-67.061 65.974h-268.281c-36.984 0-67.079-29.597-67.079-65.974l0.024-753.021h402.45v424.357c-0.018-0.006-0.035-0.010-0.053-0.018v328.681zM0 465.135v-463.368c0-36.257 30.095-65.767 67.061-65.767h219.305v595.513h-217.872c-37.757 0-68.494-29.769-68.494-66.378v0 0z" />
<glyph unicode="&#xe91e;" glyph-name="children" d="M512 19.2c-83.2 0-160 25.6-224 70.4s-108.8 102.4-140.8 166.4c-64 0-115.2 51.2-115.2 115.2 0 51.2 38.4 96 89.6 108.8 25.6 153.6 140.8 281.6 294.4 320 12.8 0 25.6-6.4 25.6-19.2s-6.4-25.6-19.2-25.6c-134.4-32-243.2-153.6-262.4-294.4 0-12.8-12.8-19.2-19.2-19.2-38.4 0-64-32-64-70.4s32-70.4 70.4-70.4h12.8c12.8 0 19.2-6.4 25.6-12.8 25.6-64 70.4-121.6 128-160s128-64 204.8-64 140.8 19.2 204.8 64c57.6 38.4 102.4 96 128 160 6.4 12.8 12.8 12.8 25.6 12.8h12.8c38.4 0 70.4 32 70.4 70.4s-25.6 64-64 70.4c-12.8 0-19.2 6.4-19.2 19.2-32 134.4-121.6 243.2-249.6 288-12.8 6.4-19.2 19.2-12.8 25.6 0 12.8 12.8 19.2 25.6 19.2 140.8-44.8 243.2-166.4 262.4-307.2 51.2-12.8 89.6-57.6 89.6-108.8 0-64-51.2-115.2-115.2-115.2-32-64-76.8-121.6-134.4-166.4-70.4-51.2-147.2-76.8-230.4-76.8zM518.4 710.4s-6.4 0 0 0c-12.8 0-25.6 12.8-19.2 25.6 0 6.4 12.8 147.2 147.2 179.2 12.8 0 25.6-6.4 25.6-12.8 0-12.8-6.4-25.6-12.8-25.6-108.8-32-121.6-140.8-121.6-147.2s-12.8-19.2-19.2-19.2zM307.2 435.2c0-25.6 19.2-44.8 44.8-44.8s44.8 19.2 44.8 44.8c0 25.6-19.2 44.8-44.8 44.8s-44.8-19.2-44.8-44.8zM620.8 435.2c0-25.6 19.2-44.8 44.8-44.8s44.8 19.2 44.8 44.8c0 25.6-19.2 44.8-44.8 44.8s-44.8-19.2-44.8-44.8z" />
<glyph unicode="&#xe91f;" glyph-name="sports" d="M227.061 715.13c-62.33-66.783-102.4-155.826-106.852-253.774h222.609c0 102.4-44.522 191.443-115.757 253.774zM373.983 461.357h120.209v378.435c-93.496-4.452-178.087-44.522-244.87-102.4 75.687-71.235 124.661-164.73 124.661-276.035zM774.678 737.391c-66.783 57.878-151.374 97.948-249.322 102.4v-373.983h120.209c4.452 106.852 53.426 200.348 129.113 271.583zM903.791 461.357c-4.452 97.948-44.522 186.991-106.852 253.774-71.235-62.33-115.757-151.374-115.757-253.774h222.609zM650.017 434.643h-120.209v-373.983c93.496 4.452 182.539 40.070 249.322 102.4-80.139 66.783-129.113 160.278-129.113 271.583zM796.939 180.87c62.33 66.783 102.4 155.826 106.852 253.774h-222.609c0-102.4 44.522-191.443 115.757-253.774zM120.209 434.643c4.452-97.948 44.522-186.991 106.852-253.774 71.235 62.33 115.757 151.374 115.757 253.774h-222.609zM249.322 158.609c66.783-57.878 151.374-97.948 249.322-102.4v373.983h-124.661c0-106.852-48.974-200.348-124.661-271.583z" />
<glyph unicode="&#xe920;" glyph-name="recreation" horiz-adv-x="1331" d="M897.263 38.083c-10.989 0-22.112 2.679-32.162 7.907l-221.113 108.815-222.99-109.083c-21.576-11.391-51.325-9.381-72.231 5.762-21.039 15.009-31.894 41.543-27.472 67.54l45.965 236.123-175.417 162.016c-19.298 18.761-26.132 46.635-17.957 71.426 7.907 24.925 29.214 43.15 55.613 47.037l243.493 44.223 109.083 219.639c11.927 23.854 35.646 38.595 62.046 38.595 26.265 0 50.655-15.142 62.046-38.728l108.949-219.371 244.163-42.883c25.73-3.752 47.037-21.844 55.077-47.037 8.175-24.658 1.206-52.531-17.421-70.756l-175.953-164.16 44.491-235.721c4.556-26.132-6.298-52.799-27.74-68.21-11.525-8.443-25.998-13.132-40.47-13.132z" />
<glyph unicode="&#xe921;" glyph-name="live" d="M749.6 287.9l132.8-81c42.9-26.4 77.9-5.1 77.9 48.2l-1.9 351.6c-0.5 53.2-36 74.5-79.3 48.7l-129.1-77.7v-289.6h-0.5c0.1 0 0.1-0.2 0.1-0.2zM571.1 702.5h-378.1c-71 0-128.6-57.8-128.6-129v-291.9c0-71.2 57.6-129 128.6-129h378.3c71 0 128.6 57.8 128.6 129v291.7c0 71.2-57.7 129.2-128.8 129.2zM490 400.8l-161.9-93.4c-20.3-11.5-36.9-1.9-36.9 21.3v187.3c0 23.6 17 32.8 36.9 21.3l161.9-93.9c20.2-11.7 19.9-31.1 0-42.6z" />
<glyph unicode="&#xe922;" glyph-name="information" d="M177.959 197.37c0 192.768 0 385.532 0 578.3 165.272 0.042 330.545 0.091 495.814 0.128 35.13 0.008 36.18-1.023 36.184-37.096 0.025-181.453 0.009-362.904 0.025-544.357 0-9.844-0.779-19.803 0.411-29.51 2.762-22.586 14.247-39.55 35.79-48.185 20.649-8.282 40.175-5.116 57.324 9.018 16.515 13.62 20.889 32.080 20.859 52.839-0.241 189.19-0.099 378.376-0.214 567.566-0.012 14.419 1.336 28.381 19.399 29.013 17.186 0.598 19.528-12.37 19.524-26.266-0.075-194.111 0.202-388.224-0.252-582.335-0.107-45.432-31.433-81.832-75.702-91.564-4.736-1.043-9.318-2.774-13.977-4.184-156.184 0-312.366 0-468.549 0-4.629 1.258-9.188 2.968-13.901 3.701-54.809 8.558-89.604 40.093-105.954 92.499-3.087 9.885-4.563 20.277-6.78 30.434zM447.113 471.321c58.35 0 116.695 0.165 175.042-0.116 15.334-0.074 30.076 1.781 30.525 20.471 0.449 18.596-14.23 22.095-29.486 22.103-116.701 0.057-233.394 0.083-350.089-0.050-14.342-0.016-28.011-3.372-28.263-21.073-0.276-19.387 13.974-21.452 29.334-21.407 57.645 0.17 115.291 0.071 172.937 0.071zM448.199 377.61c49.182 0 98.36-0.041 147.539 0.029 12.639 0.017 26.069-2.152 37.643 1.46 7.9 2.46 17.297 12.663 18.337 20.433 0.758 5.681-10.364 13.869-17.462 19.26-3.215 2.444-9.523 1.013-14.428 1.013-113.82 0.038-227.634 0.071-341.449-0.061-6.942-0.009-15.388 0.829-20.434-2.642-6.014-4.144-12.663-12.624-12.47-19.024 0.189-6.463 7.255-14.557 13.488-18.443 5.252-3.274 13.628-1.941 20.62-1.959 56.206-0.109 112.413-0.060 168.615-0.065zM447.692 284.773c60.499 0 120.992 0.065 181.486-0.050 14.346-0.029 23.753 6.53 23.488 20.892-0.243 13.122-9.176 19.659-22.625 19.652-120.992-0.063-241.984-0.042-362.972-0.055-13.281 0-22.045-6.146-22.301-19.782-0.256-13.562 8.038-20.266 21.44-20.604 4.918-0.123 9.848-0.078 14.77-0.078 55.57-0.003 111.141-0.003 166.713 0.026zM524.259 564.752c32.994 0 65.989 0.103 98.983-0.046 15.268-0.070 27.512 5.009 27.088 21.972-0.397 15.763-12.388 20.104-26.709 20.071-64.579-0.152-129.162-0.144-193.741-0.004-14.787 0.033-28.064-3.161-28.106-20.665-0.033-17.128 12.722-21.436 27.718-21.375 31.594 0.14 63.177 0.046 94.766 0.046z" />
<glyph unicode="&#xe923;" glyph-name="variety" d="M648.64 416c-126.151 0.046-228.4 102.322-228.4 228.48 0 126.186 102.294 228.48 228.48 228.48s228.48-102.294 228.48-228.48c0-63.113-25.59-120.249-66.96-161.599l-0.001-0.001c-41.246-41.319-98.265-66.88-161.255-66.88-0.121 0-0.243 0-0.364 0h0.019zM648.64 824.96c-99.486-0.252-180.038-80.959-180.038-180.479 0-99.676 80.804-180.48 180.48-180.48s180.48 80.804 180.48 180.48c0 49.868-20.225 95.013-52.921 127.678l-0.001 0.001c-32.613 32.812-77.773 53.12-127.677 53.12-0.113 0-0.227 0-0.34 0h0.017zM300.16 163.84h-9.28c-81.6 5.44-112 77.92-116.8 115.52l-1.28 9.6 245.28 325.76c4.398 6.209 11.554 10.213 19.645 10.213 13.255 0 24-10.745 24-24 0-5.775-2.040-11.074-5.438-15.215l0.033 0.042-232.32-308.64c6.176-31.881 30.381-56.783 61.376-63.895l0.544-0.105 308.96 244.48c4.358 4.439 10.423 7.19 17.13 7.19 13.255 0 24-10.745 24-24 0-8.841-4.78-16.565-11.897-20.729l-0.113-0.061zM472.96 317.92c-2.699 0.022-5.281 0.489-7.687 1.331l0.167-0.051c-129.44 43.2-144 140.48-145.12 144-0.156 1.034-0.245 2.226-0.245 3.44 0 13.39 10.855 24.245 24.245 24.245 12.177 0 22.257-8.977 23.984-20.673l0.016-0.132c0-3.36 12.96-72.64 112-105.92 9.543-3.317 16.27-12.233 16.27-22.721 0-13.181-10.626-23.88-23.778-23.999h-0.011zM420.16 22.72c-9.335 0.013-17.419 5.354-21.377 13.143l-0.063 0.137c-21.28 42.72-42.56 37.76-97.6 12.8-37.44-16.96-80-36.16-119.040-12-18.403 10.801-31.338 29.221-34.514 50.816l-0.046 0.384c-8.48 59.040 53.6 129.6 60.8 137.44 4.342 4.337 10.338 7.020 16.961 7.020 13.255 0 24-10.745 24-24 0-5.706-1.991-10.947-5.316-15.065l0.036 0.046c-20.96-23.36-52.8-70.72-48.8-98.4 1.118-7.485 5.701-13.706 12.035-17.060l0.125-0.060c16-10.080 40 0 74.080 14.88 46.4 20.96 116.48 52.8 160-35.040 1.594-3.124 2.527-6.813 2.527-10.72 0-13.243-10.726-23.981-23.965-24h-0.002z" />
<glyph unicode="&#xe924;" glyph-name="clear" d="M711.566 67.641c-0.114-5.461-1.991-7.339-4.494-7.339h-411.193c-0.034-0.001-0.074-0.001-0.114-0.001-2.388 0-4.324 1.936-4.324 4.324 0 0.001 0 0.001 0 0.002v0l-53.362 591.986c-1.504 14.523-13.677 25.751-28.471 25.751-1.032 0-2.052-0.055-3.056-0.161l0.125 0.011-9.444-0.796c-14.852-1.324-26.408-13.708-26.408-28.792 0-0.698 0.025-1.391 0.073-2.077l-0.005 0.092 53.305-589.028c-0.171-37.035 32.37-68.722 71.68-68.722h411.193c0.051 0 0.111 0 0.171 0 39.588 0 71.68 32.092 71.68 71.68 0 0.040 0 0.080 0 0.12v-0.006l53.134 586.126c0.051 0.637 0.079 1.379 0.079 2.128 0 15.019-11.594 27.331-26.321 28.472l-0.098 0.006-9.387 0.853c-0.822 0.083-1.776 0.131-2.741 0.131-14.793 0-26.985-11.136-28.649-25.483l-0.013-0.134-53.362-589.141zM182.898 683.292c-0.455 0-1.707 1.195-1.707 1.65v35.328c0 1.081 0.569 1.65 1.707 1.65h635.79c0.455 0 1.65-1.252 1.65-1.65v-35.328c0-1.138-0.569-1.65-1.65-1.65h-55.751c-15.831-0.129-28.615-12.992-28.615-28.842 0-0.040 0-0.081 0-0.121v0.006-9.5c0.031-15.86 12.783-28.732 28.594-28.956h55.772c0.085 0 0.185-0.001 0.285-0.001 38.017 0 68.836 30.819 68.836 68.836 0 0.080 0 0.16 0 0.241v-0.012 35.328c-0.414 37.995-31.12 68.682-69.084 69.063h-635.826c-0.085 0-0.185 0.001-0.285 0.001-38.017 0-68.836-30.819-68.836-68.836 0-0.080 0-0.16 0-0.241v0.012-35.328c0-37.66 31.46-69.063 69.12-69.063h55.808c15.8 0.129 28.559 12.967 28.559 28.785 0 0.060 0 0.121-0.001 0.181v-0.009 9.5c-0.030 15.841-12.75 28.701-28.534 28.956h-55.832zM426.61 789.333h170.837c15.758 0 28.331 12.572 28.331 28.444s-12.572 28.444-28.331 28.444h-170.837c-15.872 0-28.388-12.572-28.388-28.444s12.572-28.444 28.388-28.444zM426.61 903.111h170.837c47.047 0 85.22-37.888 85.22-85.333 0-47.104-37.831-85.333-85.22-85.333h-170.837c-0.051 0-0.111 0-0.171 0-47.003 0-85.106 38.103-85.106 85.106 0 0.080 0 0.16 0 0.24v-0.012c0 47.104 37.831 85.333 85.276 85.333zM466.375 163.669c0-15.644 13.028-28.331 29.013-28.331h9.444c0.068-0.001 0.149-0.001 0.23-0.001 15.727 0 28.502 12.637 28.726 28.311v419.121c-0.192 15.688-12.954 28.332-28.67 28.332-0.101 0-0.201-0.001-0.302-0.002h-9.429c-0.085 0.001-0.186 0.001-0.287 0.001-15.727 0-28.502-12.637-28.726-28.311v-419.121zM334.564 163.612c0.848-15.151 13.342-27.117 28.63-27.117 0.515 0 1.027 0.014 1.535 0.040l-0.071-0.003 9.444 0.341c15.474 0.5 27.829 13.165 27.829 28.715 0 0.265-0.004 0.529-0.011 0.793l0.001-0.039-16.725 417.906c-0.878 15.157-13.384 27.117-28.684 27.117-0.516 0-1.029-0.014-1.539-0.041l-9.372-0.395c-15.474-0.5-27.829-13.165-27.829-28.715 0-0.265 0.004-0.529 0.011-0.793l-0.001 0.039 16.782-417.849zM599.552 166.116c-0.005-0.206-0.008-0.448-0.008-0.691 0-15.535 12.404-28.173 27.849-28.55l0.035-0.001 9.444-0.341c0.452-0.026 0.981-0.040 1.513-0.040 15.255 0 27.71 11.985 28.465 27.052l0.003 0.067 15.588 416.711c0.007 0.239 0.011 0.52 0.011 0.802 0 15.513-12.419 28.126-27.858 28.439h-0.029l-9.444 0.398c-0.419 0.022-0.911 0.034-1.405 0.034-15.307 0-27.812-11.995-28.63-27.098l-0.003-0.073-15.531-416.711z" />
<glyph unicode="&#xe925;" glyph-name="next" horiz-adv-x="1097" d="M865.39 109.295v693.845c0 14.852-12.039 26.894-26.894 26.894-14.853 0-26.893-12.041-26.893-26.894v-693.842c0-14.853 12.039-26.896 26.893-26.896 14.858 0.002 26.894 12.042 26.894 26.893zM322.462 144.086l339.819 278.25c23.014 18.844 23.058 49.491 0 68.369l-339.819 278.251c-23.014 18.841-41.748 10.088-41.748-19.638v-585.596c0.002-29.959 18.693-38.516 41.748-19.636zM356.538 102.469c-58.090-47.561-129.61-14.199-129.61 61.254v585.597c0 75.201 71.551 108.791 129.61 61.254l339.823-278.25c49.331-40.396 49.301-111.231 0-151.599l-339.823-278.256z" />
<glyph unicode="&#xe926;" glyph-name="tick" d="M812.512 723.138l-420.744-435.676-175.999 181.514c-21.488 22.723-55.766 22.723-77.317 0-21.426-22.787-21.426-59.013 0-77.126l210.403-217.805c12.856-9.154 25.774-18.179 38.563-18.179 12.921 0 30.124 4.545 38.692 18.113l459.44 471.968c21.426 22.721 21.426 59.012 0 77.19-17.268 22.659-51.483 22.659-73.038 0z" />
<glyph unicode="&#xe927;" glyph-name="pause" d="M128 850.432c0 60.48 48.64 109.568 109.696 109.568 60.608 0 109.824-49.408 109.824-109.568v-804.863c0-0.038 0-0.083 0-0.129 0-60.442-48.998-109.44-109.44-109.44-0.135 0-0.27 0-0.405 0.001h0.021c-60.495 0.109-109.514 49.084-109.696 109.551v804.88zM676.544 850.432c0 60.48 48.704 109.568 109.76 109.568 60.544 0 109.696-49.408 109.696-109.568v-804.863c0-0.038 0-0.083 0-0.128 0-60.442-48.998-109.44-109.44-109.44-0.090 0-0.18 0-0.27 0h0.014c-60.522 0.073-109.578 49.061-109.76 109.551v804.88z" />
<glyph unicode="&#xe928;" glyph-name="play" d="M934.613 626.56c-23.147 54.613-56.213 103.68-98.24 145.813-42.133 42.133-91.2 75.2-145.813 98.24-56.533 23.893-116.693 36.053-178.56 36.053s-122.027-12.16-178.56-36.053c-54.613-23.147-103.68-56.213-145.813-98.24-42.133-42.133-75.2-91.2-98.24-145.813-23.893-56.533-36.053-116.693-36.053-178.56s12.16-122.027 36.053-178.56c23.147-54.613 56.213-103.68 98.24-145.813 42.133-42.133 91.2-75.2 145.813-98.24 56.533-23.893 116.693-36.053 178.56-36.053s122.027 12.16 178.56 36.053c54.613 23.147 103.68 56.213 145.813 98.24 42.133 42.133 75.2 91.2 98.24 145.813 23.893 56.533 36.053 116.693 36.053 178.56s-12.16 122.027-36.053 178.56zM791.040 168.96c-74.56-74.56-173.653-115.627-279.040-115.627s-204.48 41.067-279.040 115.627-115.627 173.653-115.627 279.040c0 105.387 41.067 204.48 115.627 279.040s173.653 115.627 279.040 115.627 204.48-41.067 279.040-115.627 115.627-173.653 115.627-279.040c0-105.387-41.067-204.48-115.627-279.040zM718.72 475.093l-281.387 177.387c-21.333 13.44-49.067-1.92-49.067-27.093v-354.88c0-25.173 27.733-40.533 49.067-27.093l281.387 177.493c19.84 12.587 19.84 41.6 0 54.187z" />
<glyph unicode="&#xe929;" glyph-name="more" horiz-adv-x="1449" d="M753.6 636.105c43.464 0 78.699 35.811 78.699 79.989 0 44.183-35.235 80.005-78.699 80.005-43.476 0-78.723-35.821-78.723-80.005 0-44.178 35.247-79.989 78.723-79.989zM753.6 556.106c-43.476 0-78.723-35.821-78.723-80.010 0-44.19 35.247-79.998 78.723-79.998 43.464 0 78.699 35.806 78.699 79.998 0 44.187-35.235 80.010-78.699 80.010zM753.6 316.093c-43.476 0-78.723-35.815-78.723-79.998 0-44.18 35.247-80.005 78.723-80.005 43.464 0 78.699 35.827 78.699 80.005 0 44.183-35.235 79.998-78.699 79.998z" />
<glyph unicode="&#xe92a;" glyph-name="friend" d="M513.666 895.866c-17.104 0-33.904-1.032-50.431-2.977-40.505-4.583-79.33-14.702-115.828-29.397 0 0 300.947-297.82 308.96-308.891v317.595c-8.969 3.053-18.131 5.802-27.369 8.362-36.761 9.889-75.437 15.308-115.332 15.308v0zM828.014 766.484c-12.064 12.064-24.703 23.215-37.756 33.556-31.916 25.352-66.504 45.735-102.66 61.085 0 0 2.215-423.265 0-436.781l224.637 224.593c-4.203 8.478-8.742 16.917-13.518 25.199-19.051 32.985-42.488 64.176-70.703 92.348v0zM926.621 613.699c0 0-297.736-300.91-308.885-308.924h317.631c3.053 8.969 5.805 18.133 8.322 27.371 9.924 36.842 15.35 75.399 15.35 115.332 0 17.067-1.070 33.903-3.021 50.432-4.58 40.506-14.656 79.33-29.397 115.789v0zM484.917 271.332l224.632-224.595c8.553 4.237 16.916 8.704 25.236 13.513 32.986 18.977 64.139 42.452 92.391 70.703 12.021 12.027 23.135 24.703 33.518 37.756 25.309 31.921 45.738 66.468 61.082 102.662 0.002 0-423.302-2.218-436.859-0.039v0zM369.663 341.882v-317.63c9.013-3.054 18.17-5.841 27.372-8.326 36.804-9.926 75.403-15.345 115.337-15.345 17.023 0 33.859 1.070 50.353 2.978 40.506 4.62 79.332 14.695 115.828 29.436 0.037-0.001-300.874 297.738-308.89 308.887v0zM338.051 474.357l-224.556-224.592c4.203-8.592 8.747-16.992 13.518-25.236 18.976-33.062 42.451-64.213 70.703-92.428 12.026-12.065 24.702-23.173 37.756-33.52 31.952-25.39 66.429-45.736 102.698-61.080-0.001-0.001-2.292 423.302-0.119 436.856v0zM82.267 564.11c-9.888-36.804-15.307-75.402-15.307-115.336 0-17.024 1.069-33.897 3.015-50.393 4.583-40.542 14.622-79.369 29.435-115.789 0 0 297.706 300.911 308.853 308.89h-317.671c-3.054-8.931-5.803-18.132-8.325-27.372v0zM289.073 834.479c-33.061-19.013-64.214-42.494-92.391-70.665-12.139-12.104-23.21-24.779-33.556-37.756-25.352-31.921-45.736-66.506-61.119-102.736 0 0 423.377 2.253 436.895 0.076l-224.597 224.593c-8.548-4.273-16.987-8.742-25.232-13.512v0z" />
<glyph unicode="&#xe92b;" glyph-name="QQ" d="M920.789 236.203c-6.229-18.304-15.061-27.221-26.453-27.221-2.816 0-6.016 1.109-9.173 3.499-3.328 2.432-6.528 5.248-9.173 8.405-2.645 3.072-5.675 7.168-8.917 12.245-3.499 5.077-5.931 9.344-7.68 12.672-1.835 3.285-4.011 7.424-6.357 12.501-2.688 4.693-3.968 7.595-4.395 8.149-0.341 0.299-0.896 0.512-1.323 0.512l-2.517-1.92c-18.688-48.981-39.637-84.267-62.805-106.155 6.229-6.272 15.957-12.501 29.227-18.517 13.184-5.675 24.064-12.288 32.853-19.584 8.832-7.424 14.549-17.707 16.981-31.019-0.683-1.237-1.237-3.925-2.048-7.595-0.725-3.968-1.707-6.571-3.285-8.661-20.437-30.848-68.267-46.165-143.915-46.165-16.768 0-34.219 1.408-52.437 4.309-18.219 2.859-33.749 6.016-46.805 9.728-12.672 3.413-29.355 8.021-49.664 14.165-4.693 1.621-8.32 2.688-10.837 3.499-4.565 1.067-11.861 1.92-21.888 1.92-10.325 0.341-16.597 0.427-19.285 0.768-12.971-14.336-33.152-24.576-60.587-30.933-27.307-6.272-54.101-9.472-80.171-9.472-11.136 0-22.059 0.213-32.896 0.683-10.667 0.512-25.472 1.92-44.245 4.309-18.688 2.389-34.688 5.717-47.957 9.643-13.44 4.267-25.216 10.581-35.456 19.115-10.368 8.704-15.488 18.773-15.488 30.507 0 12.8 1.493 22.144 4.651 28.416 3.157 6.229 9.643 13.909 19.541 22.912 3.499 0.811 9.856 2.773 19.285 6.272 9.429 3.669 17.237 5.419 23.595 5.675 1.237 0 3.456 0.555 6.613 0.981 0.555 0.683 0.939 1.195 0.939 1.92l-0.939 1.365c-15.147 3.627-32.299 20.395-51.328 50.219-19.072 30.080-30.677 54.997-34.773 74.581l-2.389 1.408c-1.323 0-3.285-3.243-5.76-9.472-5.675-12.971-14.379-24.96-25.856-35.541-11.691-10.581-24.021-16.597-36.992-17.92h-0.341c-1.451 0-2.389 0.725-2.944 2.133-0.725 1.536-1.493 2.389-2.389 2.645-7.253 17.067-11.051 32.981-11.051 47.531 0 87.381 39.979 161.323 119.979 221.952l0.128 0.171c-2.517 6.016-3.755 14.251-3.755 24.832 0 6.187 1.835 14.165 5.163 23.211 3.413 9.173 7.381 16.469 11.435 21.504-0.341 6.997 0.853 15.317 3.627 25.344 2.645 9.557 6.272 16.512 10.752 20.352 0 44.075 14.549 89.899 43.989 137.301 29.312 47.531 64 80.725 103.509 99.84 44.203 20.821 95.659 31.445 154.368 31.445 42.069 0 84.437-8.704 126.592-26.197 15.573-6.656 29.739-14.251 42.837-22.912 12.928-8.576 24.149-17.408 33.877-26.709 9.387-9.173 18.005-19.925 26.112-32.427 7.893-12.331 14.421-23.979 20.011-35.243 5.376-10.923 10.581-24.277 15.403-40.064 4.821-15.616 8.917-30.037 12.16-42.496 3.029-12.8 6.528-28.459 10.24-46.805l0.768-2.389c17.493-26.325 26.155-50.261 26.155-71.424 0-4.437-1.579-10.709-4.352-19.115-2.944-8.149-4.437-14.165-4.437-17.792 0-0.384 0.341-0.939 0.853-1.92 0.427-0.683 0.896-1.451 1.579-2.389 0.725-0.811 0.939-1.237 0.939-1.579 24.405-36.181 43.563-70.144 57.387-102.229 13.739-31.915 20.608-64.939 20.608-99.243 0.171-13.739-2.773-29.525-9.088-47.531z" />
<glyph unicode="&#xe92c;" glyph-name="zoom" horiz-adv-x="1067" d="M698.397 623.517s-132.627 336.483-164.68 336.483-164.68-336.483-164.68-336.483-356.997-25.357-368.679-53.991 266.822-261.978 266.822-261.978-82.055-354.291-62.966-370.388 329.503 175.222 329.503 175.222 307.85-196.733 329.503-174.652c15.67 15.955-24.218 200.722-47.581 302.864 10.107 4.318 21.922 7.831 34.209 9.973l0.978 0.141c11.686 2.177 22.105 6.142 31.515 11.645l-0.46-0.248s-74.22-16.667-291.894-21.511-278.931 6.268-278.931 6.268l306.71 230.068s-95.304 17.522-167.814 24.218c-103.424 9.402-194.169 9.26-182.915 12.109 61.623 8.463 132.833 13.293 205.172 13.293 21.581 0 43.062-0.43 64.434-1.282l-3.069 0.097c82.015-3.79 158.752-12.448 233.864-25.806l-10.777 1.588-306.567-220.523s66.955-10.399 122.655-12.536c105.988-4.131 235.196-1.14 234.912 0-3.989 16.952-7.408 39.461-7.408 39.461s276.367 233.487 266.537 261.978-368.394 53.991-368.394 53.991z" />
<glyph unicode="&#xe92d;" glyph-name="collect" horiz-adv-x="1032" d="M388.28 583.173c52.172 82.909 80.672 179.009 131.312 263.096 50.052-84.205 79.965-178.773 130.135-262.742 92.684-19.55 187.606-32.269 282.056-42.279v-8.244c-55.116-45.93-101.163-101.399-152.628-151.097-17.783-18.725-38.51-35.684-50.876-58.884 9.775-96.688 34.035-191.492 43.103-288.298-87.031 38.628-166.525 91.86-251.79 134.256-85.147-42.397-164.759-95.628-251.79-134.256 10.364 97.159 31.091 192.905 44.988 289.594-66.068 71.25-131.548 143.914-205.389 207.155v8.597c93.862 12.248 188.43 23.083 280.879 43.103zM423.14 536.772c-73.488-10.835-147.447-19.55-221.17-28.736 49.345-59.12 108.112-109.643 159.577-166.996-1.767-72.899-26.145-143.796-30.855-216.812 63.831 33.329 124.835 71.721 189.019 104.461 63.595-33.093 123.54-72.899 187.841-104.814-6.477 72.781-29.207 144.385-29.56 217.166 51.347 56.529 109.407 106.934 158.517 165.583-73.723 7.537-146.976 19.196-220.345 29.442-33.917 66.422-60.886 136.259-96.453 201.856-35.566-65.362-63.713-134.374-96.57-201.149z" />
<glyph unicode="&#xe92e;" glyph-name="weixin" d="M296.512 840.394c-302.228-53.98-402.972-395.441-162.57-551.734 13.181-8.474 13.181-7.532-6.595-66.534l-16.947-50.527 121.772 65.277 32.328-7.844c33.892-8.476 77.204-14.438 106.076-14.438h17.262l-5.965 22.912c-47.391 174.495 116.434 347.423 329.536 347.423h28.874l-5.965 20.713c-46.764 163.51-244.165 269.274-437.806 234.752zM270.149 687.555c32.010-21.658 33.894-68.421 3.136-88.504-49.897-32.64-108.273 24.794-74.693 73.754 14.751 21.967 50.214 29.184 71.557 14.751zM527.501 687.555c52.726-35.466 13.181-117.379-45.824-94.779-42.68 16.32-47.703 75.005-7.846 96.033 15.693 8.471 40.172 7.844 53.67-1.254zM643.935 558.249c-149.701-27.305-253.586-140.915-247.621-271.473 7.846-174.812 212.787-295.324 409.562-241.344l23.222 6.277 48.963-26.365c26.99-14.751 49.587-25.421 50.212-24.161 0.632 1.567-4.705 20.401-11.61 42.053-15.69 48.333-16.008 44.882 5.023 59.945 236.634 169.789 28.874 510.618-277.75 455.068zM637.972 417.334c13.176-8.788 20.086-30.758 14.433-46.764-11.922-34.207-63.078-36.718-76.892-3.766-15.69 37.975 27.622 73.129 62.459 50.529zM847.619 413.568c20.713-19.771 17.262-53.353-6.904-65.905-37.033-18.826-75.95 18.826-56.804 54.922 12.549 23.224 44.874 28.872 63.708 10.982z" />
<glyph unicode="&#xe92f;" glyph-name="" d="M300.373 343.893h-138.24c-39.253 0-71.68 32.427-71.68 71.68v373.76c0 39.253 32.427 69.973 71.68 69.973h139.947v-515.413zM162.133 808.107c-10.24 0-20.48-8.533-20.48-18.773v-373.76c0-10.24 10.24-20.48 20.48-20.48h88.747v413.013h-88.747zM552.96-11.093c-44.373 0-80.213 29.013-87.040 69.973-35.84 175.787-126.293 259.413-199.68 279.893l-20.48 6.827v513.707h494.933c52.907 0 98.987-34.133 112.64-85.333l102.4-361.813c6.827-30.72 0-58.027-17.067-78.507-17.067-22.187-44.373-35.84-73.387-35.84h-204.8c-10.24 0-22.187-10.24-22.187-20.48v-203.093c1.707-47.787-37.547-85.333-85.333-85.333zM296.96 383.147c83.627-32.427 180.907-129.707 218.453-314.027 3.413-17.067 17.067-29.013 35.84-29.013 20.48 0 35.84 15.36 35.84 34.133v203.093c0 39.253 34.133 71.68 73.387 71.68h204.8c13.653 0 25.6 6.827 34.133 17.067 8.533 8.533 10.24 20.48 6.827 34.133l-102.4 360.107c-8.533 29.013-34.133 47.787-64.853 47.787h-443.733v-424.96z" />
<glyph unicode="&#xe930;" glyph-name="subscribe" d="M974.315 17.758l0.204 20.372c0 483.802-392.215 876-876.037 876l-20.373-0.204v-142.4c416.316 0 753.799-337.475 753.799-753.767h142.407zM648.145 17.758l0.406 20.372c0 303.786-246.27 550.047-550.070 550.047l-20.373-0.406v-142.198c236.287 0 427.833-191.536 427.833-427.815h142.204zM78.11 139.993c0-67.512 54.726-122.235 122.237-122.235 67.514 0 122.237 54.723 122.237 122.235 0 67.502-54.723 122.229-122.237 122.229-67.511 0.001-122.237-54.726-122.237-122.229z" />
<glyph unicode="&#xe931;" glyph-name="scanning" d="M221.498 574.267h-56.302v222.616h222.614v-56.301h-166.312zM387.816 95.086h-222.62v222.616h56.302v-166.314h166.318zM866.993 95.086h-222.613v56.302h166.312v166.314h56.301zM866.993 574.267h-56.301v166.315h-166.318v56.301h222.619zM224.45 477.845h575.098v-59.69h-575.098v59.69z" />
<glyph unicode="&#xe932;" glyph-name="subscribe-fill" d="M845.52 900.134c-17.862 16.754-42.437 27.201-69.287 27.201v0h-503.042c-26.909 0-51.425-10.448-69.287-27.201-18.153-17.045-29.419-40.743-29.419-66.777l0.058-808.733c0-5.429 1.459-10.973 4.495-15.936 8.989-14.711 28.544-19.497 43.546-10.682l283.449 165.423c5.78 3.385 12.199 5.079 18.622 5.079s12.901-1.692 18.68-5.079l281.465-164.314c5.195-3.62 11.557-5.721 18.329-5.721 17.571 0 31.813 13.951 31.813 31.112v808.849c0 26.092-11.265 49.732-29.419 66.777zM737.132 504.641c0-8.125-6.585-14.71-14.71-14.71h-148.874v-148.874c0-8.125-6.585-14.711-14.71-14.711h-68.25c-8.125 0-14.71 6.585-14.71 14.71v148.875h-148.875c-8.125 0-14.71 6.585-14.71 14.71v68.25c0 8.125 6.585 14.71 14.71 14.71h148.875v148.875c0 8.125 6.585 14.71 14.71 14.71h68.25c8.125 0 14.71-6.585 14.71-14.71v-148.875h148.874c8.125 0 14.71-6.585 14.71-14.71v-68.25z" />
<glyph unicode="&#xe933;" glyph-name="upload" d="M223.273 390.252h-234.825l531.254 404.212 492.746-404.212h-211.731v-346.475h-577.455v346.475z" />
<glyph unicode="&#xe934;" glyph-name="right" d="M681.322 421.732c0.011 0 0.025 0 0.040 0 6.564 0 12.506 2.667 16.801 6.978 4.312 4.31 6.979 10.264 6.979 16.841s-2.666 12.532-6.978 16.84l-345.758 345.736c-9.302 9.302-24.375 9.302-33.681 0s-9.302-24.375 0-33.681l345.755-345.741c4.298-4.308 10.241-6.974 16.808-6.974 0.013 0 0.025 0 0.038 0zM336.843 77.252c0.011 0 0.025 0 0.040 0 6.564 0 12.506 2.667 16.801 6.977l344.478 344.481c9.302 9.302 9.302 24.375 0 33.681s-24.375 9.302-33.681 0l-344.477-344.483c-4.313-4.31-6.982-10.265-6.982-16.843 0-13.15 10.66-23.811 23.812-23.811 0.005 0 0.008 0 0.011 0z" />
</font>
</defs>
</svg>
